<svg xmlns="http://www.w3.org/2000/svg" xmlns:xlink="http://www.w3.org/1999/xlink" width="1920" zoomAndPan="magnify" viewBox="0 0 1440 809.999993" height="1080" preserveAspectRatio="xMidYMid meet" version="1.0"><defs><g/><clipPath id="d2df22c808"><path d="M 0.921875 0.398438 L 761.480469 0.398438 L 761.480469 397.359375 L 0.921875 397.359375 Z M 0.921875 0.398438 " clip-rule="nonzero"/></clipPath><clipPath id="8388d45c61"><rect x="0" width="762" y="0" height="398"/></clipPath><clipPath id="dd9ee39d25"><rect x="0" width="762" y="0" height="398"/></clipPath></defs><g transform="matrix(1, 0, 0, 1, 343, 206)"><g clip-path="url(#dd9ee39d25)"><g clip-path="url(#d2df22c808)"><g transform="matrix(1, 0, 0, 1, 0, 0.000000000000056843)"><g clip-path="url(#8388d45c61)"><g fill="#ffffff" fill-opacity="1"><g transform="translate(1.285597, 330.792862)"><g><path d="M 184.140625 -104.796875 C 184.796875 -104.796875 185.347656 -104.46875 185.796875 -103.8125 C 185.796875 -103.144531 185.6875 -102.703125 185.46875 -102.484375 C 185.019531 -101.828125 184.132812 -101.273438 182.8125 -100.828125 C 153.945312 -86.503906 129.816406 -71.957031 110.421875 -57.1875 C 100.503906 -49.695312 89.265625 -39.890625 76.703125 -27.765625 C 74.929688 -26.003906 73.273438 -23.359375 71.734375 -19.828125 C 66.003906 -3.960938 58.289062 10.25 48.59375 22.8125 L 43.96875 28.4375 C 42.644531 29.757812 41.65625 30.640625 41 31.078125 C 39.445312 32.617188 37.789062 32.945312 36.03125 32.0625 C 34.925781 31.40625 34.375 29.863281 34.375 27.4375 C 34.601562 24.789062 35.488281 22.035156 37.03125 19.171875 C 39.675781 13.660156 42.867188 8.148438 46.609375 2.640625 C 52.785156 -6.390625 59.289062 -14.429688 66.125 -21.484375 C 68.320312 -24.128906 69.640625 -26.332031 70.078125 -28.09375 C 76.472656 -50.132812 80.332031 -65.015625 81.65625 -72.734375 C 83.632812 -83.304688 82.644531 -93.773438 78.6875 -104.140625 C 75.15625 -112.296875 69.421875 -118.023438 61.484375 -121.328125 C 57.078125 -122.867188 50.6875 -124.519531 42.3125 -126.28125 C 39.445312 -126.726562 35.367188 -127.171875 30.078125 -127.609375 C 24.796875 -128.046875 21.160156 -128.375 19.171875 -128.59375 C 18.734375 -128.59375 18.128906 -128.648438 17.359375 -128.765625 C 16.585938 -128.878906 15.976562 -129.046875 15.53125 -129.265625 C 8.039062 -130.804688 3.96875 -135.546875 3.3125 -143.484375 C 3.082031 -146.785156 3.742188 -150.859375 5.296875 -155.703125 C 6.390625 -159.015625 8.367188 -163.203125 11.234375 -168.265625 C 21.148438 -184.578125 32.0625 -198.351562 43.96875 -209.59375 C 53.226562 -218.40625 63.035156 -225.128906 73.390625 -229.765625 C 79.566406 -232.191406 85.296875 -232.851562 90.578125 -231.75 C 93.441406 -231.300781 95.535156 -230.640625 96.859375 -229.765625 C 97.960938 -229.097656 98.515625 -228.101562 98.515625 -226.78125 C 98.078125 -225.457031 97.304688 -224.796875 96.203125 -224.796875 C 95.097656 -224.359375 93.222656 -224.140625 90.578125 -224.140625 C 85.734375 -224.140625 80.882812 -222.816406 76.03125 -220.171875 C 67.21875 -215.765625 59.394531 -210.476562 52.5625 -204.3125 C 39.113281 -191.300781 27.875 -176.972656 18.84375 -161.328125 C 17.082031 -158.242188 15.757812 -155.707031 14.875 -153.71875 C 13.988281 -151.957031 13.21875 -150.085938 12.5625 -148.109375 C 11.457031 -143.703125 11.507812 -140.5625 12.71875 -138.6875 C 13.9375 -136.8125 16.640625 -135.429688 20.828125 -134.546875 C 22.585938 -134.109375 24.515625 -133.722656 26.609375 -133.390625 C 28.703125 -133.066406 31.070312 -132.738281 33.71875 -132.40625 C 36.363281 -132.070312 38.347656 -131.796875 39.671875 -131.578125 C 46.066406 -130.253906 52.898438 -128.378906 60.171875 -125.953125 C 72.515625 -121.765625 80.554688 -113.0625 84.296875 -99.84375 C 87.390625 -89.039062 87.5 -77.46875 84.625 -65.125 C 81.539062 -53.664062 79.335938 -44.960938 78.015625 -39.015625 C 77.796875 -38.566406 77.578125 -37.789062 77.359375 -36.6875 C 77.140625 -35.59375 77.03125 -34.9375 77.03125 -34.71875 C 77.6875 -34.71875 78.898438 -35.265625 80.671875 -36.359375 C 99.617188 -54.648438 121.101562 -70.738281 145.125 -84.625 C 147.113281 -85.726562 150.035156 -87.4375 153.890625 -89.75 C 157.742188 -92.070312 160.664062 -93.78125 162.65625 -94.875 C 168.382812 -98.40625 174.554688 -101.382812 181.171875 -103.8125 Z M 63.796875 -14.21875 L 63.796875 -14.546875 L 63.46875 -14.21875 Z M 62.15625 -8.265625 C 63.476562 -10.472656 64.023438 -12.347656 63.796875 -13.890625 L 63.46875 -13.890625 C 63.03125 -13.441406 62.367188 -12.613281 61.484375 -11.40625 C 60.609375 -10.195312 59.835938 -9.257812 59.171875 -8.59375 C 54.109375 -2.644531 49.039062 4.515625 43.96875 12.890625 C 40.882812 18.398438 39.007812 22.367188 38.34375 24.796875 C 37.90625 26.117188 37.90625 27.109375 38.34375 27.765625 C 39.226562 27.765625 40.113281 27.101562 41 25.78125 C 43.195312 23.132812 44.847656 21.039062 45.953125 19.5 C 52.566406 10.03125 57.96875 0.773438 62.15625 -8.265625 Z M 62.15625 -8.265625 "/></g></g></g><g fill="#ffffff" fill-opacity="1"><g transform="translate(180.466987, 330.792862)"><g><path d="M 12.890625 -79.015625 C 10.023438 -76.148438 7.601562 -76.585938 5.625 -80.328125 C 4.519531 -82.972656 3.75 -86.171875 3.3125 -89.921875 C 2.863281 -99.835938 3.523438 -108.429688 5.296875 -115.703125 C 9.035156 -134.222656 15.316406 -154.390625 24.140625 -176.203125 C 28.546875 -186.335938 33.941406 -195.59375 40.328125 -203.96875 C 42.535156 -207.28125 44.960938 -209.816406 47.609375 -211.578125 C 49.367188 -212.898438 51.128906 -213.894531 52.890625 -214.5625 C 55.972656 -215.65625 58.507812 -214.878906 60.5 -212.234375 C 62.257812 -209.816406 63.140625 -206.953125 63.140625 -203.640625 C 63.359375 -199.015625 62.695312 -193.503906 61.15625 -187.109375 C 58.957031 -177.410156 55.210938 -167.601562 49.921875 -157.6875 C 41.546875 -140.9375 32.507812 -126.832031 22.8125 -115.375 C 17.519531 -109.644531 13.992188 -106.007812 12.234375 -104.46875 C 10.691406 -103.363281 9.921875 -102.148438 9.921875 -100.828125 C 8.816406 -93.773438 9.035156 -87.492188 10.578125 -81.984375 C 12.785156 -83.085938 14.988281 -85.179688 17.1875 -88.265625 L 28.765625 -101.15625 C 30.523438 -103.363281 32.945312 -105.570312 36.03125 -107.78125 C 37.570312 -109.320312 39.226562 -110.203125 41 -110.421875 C 44.957031 -111.523438 47.929688 -110.644531 49.921875 -107.78125 C 52.117188 -105.351562 53.992188 -102.816406 55.546875 -100.171875 C 58.847656 -94.222656 63.53125 -90.640625 69.59375 -89.421875 C 75.65625 -88.210938 81.660156 -89.921875 87.609375 -94.546875 L 96.53125 -102.484375 C 97.195312 -103.140625 98.191406 -103.910156 99.515625 -104.796875 C 99.515625 -105.234375 99.84375 -105.125 100.5 -104.46875 C 100.71875 -104.46875 100.828125 -104.25 100.828125 -103.8125 L 100.5 -103.46875 C 94.988281 -96.644531 89.148438 -91.6875 82.984375 -88.59375 C 78.347656 -85.726562 72.941406 -85.007812 66.765625 -86.4375 C 60.597656 -87.875 55.972656 -91.347656 52.890625 -96.859375 C 49.804688 -101.710938 48.046875 -104.46875 47.609375 -105.125 C 45.398438 -108.4375 42.535156 -108.988281 39.015625 -106.78125 C 37.023438 -105.675781 34.929688 -104.023438 32.734375 -101.828125 C 28.984375 -98.296875 24.679688 -93.335938 19.828125 -86.953125 C 19.390625 -86.285156 18.726562 -85.398438 17.84375 -84.296875 C 16.96875 -83.203125 16.144531 -82.210938 15.375 -81.328125 C 14.601562 -80.441406 13.773438 -79.671875 12.890625 -79.015625 Z M 11.234375 -108.4375 L 12.234375 -108.4375 C 12.453125 -108.65625 12.890625 -109.039062 13.546875 -109.59375 C 14.210938 -110.144531 14.765625 -110.695312 15.203125 -111.25 C 15.648438 -111.800781 16.09375 -112.296875 16.53125 -112.734375 C 29.976562 -127.492188 41.660156 -145.457031 51.578125 -166.625 C 54.441406 -173.007812 56.644531 -179.175781 58.1875 -185.125 C 59.945312 -191.082031 60.828125 -196.707031 60.828125 -202 C 60.828125 -203.976562 60.5 -205.957031 59.84375 -207.9375 C 58.289062 -211.46875 55.753906 -212.238281 52.234375 -210.25 C 49.367188 -208.050781 47.164062 -205.628906 45.625 -202.984375 C 44.082031 -200.554688 41.988281 -196.921875 39.34375 -192.078125 C 33.164062 -181.054688 27.4375 -167.28125 22.15625 -150.75 C 17.519531 -137.53125 14.101562 -125.738281 11.90625 -115.375 C 11.457031 -111.625 11.234375 -109.3125 11.234375 -108.4375 Z M 11.234375 -108.4375 "/></g></g></g><g fill="#ffffff" fill-opacity="1"><g transform="translate(274.686014, 330.792862)"><g><path d="M 10.25 -119.671875 C 9.582031 -119.671875 9.082031 -119.78125 8.75 -120 C 8.425781 -120.226562 8.375 -120.5625 8.59375 -121 C 9.03125 -124.96875 10.132812 -128.273438 11.90625 -130.921875 C 11.90625 -131.140625 12.453125 -131.25 13.546875 -131.25 C 13.773438 -131.25 14.21875 -130.914062 14.875 -130.25 C 15.09375 -129.8125 15.203125 -129.148438 15.203125 -128.265625 C 14.097656 -124.296875 13.328125 -121.984375 12.890625 -121.328125 C 12.234375 -120.222656 11.351562 -119.671875 10.25 -119.671875 Z M 9.25 -84.96875 C 4.1875 -86.507812 1.65625 -89.925781 1.65625 -95.21875 C 1.65625 -98.738281 2.425781 -101.929688 3.96875 -104.796875 C 4.625 -106.117188 5.722656 -106.671875 7.265625 -106.453125 C 8.816406 -106.015625 9.59375 -105.019531 9.59375 -103.46875 L 9.59375 -99.84375 C 9.59375 -98.957031 9.476562 -98.1875 9.25 -97.53125 L 9.25 -96.53125 C 9.03125 -94.101562 9.632812 -92.171875 11.0625 -90.734375 C 12.5 -89.304688 14.429688 -88.59375 16.859375 -88.59375 C 18.617188 -88.59375 20.820312 -89.144531 23.46875 -90.25 C 27.4375 -91.789062 31.957031 -94.546875 37.03125 -98.515625 L 44.953125 -104.46875 C 46.054688 -105.125 46.832031 -105.34375 47.28125 -105.125 C 47.71875 -105.125 47.9375 -104.789062 47.9375 -104.125 C 47.9375 -103.46875 47.71875 -103.140625 47.28125 -103.140625 C 37.351562 -94.984375 29.195312 -89.363281 22.8125 -86.28125 C 18.1875 -84.082031 13.664062 -83.644531 9.25 -84.96875 Z M 9.25 -84.96875 "/></g></g></g><g fill="#ffffff" fill-opacity="1"><g transform="translate(316.010135, 330.792862)"><g><path d="M 14.546875 -70.078125 C 11.242188 -68.097656 8.597656 -68.875 6.609375 -72.40625 C 6.171875 -73.28125 5.734375 -74.597656 5.296875 -76.359375 C 3.085938 -85.398438 2.644531 -94.109375 3.96875 -102.484375 C 4.40625 -104.910156 5.285156 -106.234375 6.609375 -106.453125 C 8.597656 -106.453125 9.59375 -105.019531 9.59375 -102.15625 C 9.8125 -100.164062 9.972656 -97.957031 10.078125 -95.53125 C 10.191406 -93.113281 10.300781 -90.472656 10.40625 -87.609375 C 10.519531 -84.742188 10.578125 -82.539062 10.578125 -81 C 10.578125 -80.332031 10.6875 -79.335938 10.90625 -78.015625 C 11.125 -76.691406 11.234375 -75.703125 11.234375 -75.046875 C 11.679688 -73.054688 12.675781 -72.613281 14.21875 -73.71875 C 15.757812 -74.164062 17.191406 -75.488281 18.515625 -77.6875 C 24.242188 -85.625 28.648438 -93.007812 31.734375 -99.84375 C 34.597656 -106.007812 36.363281 -109.753906 37.03125 -111.078125 C 38.789062 -113.941406 40.882812 -114.492188 43.3125 -112.734375 L 53.21875 -107.4375 C 58.289062 -104.789062 63.582031 -103.910156 69.09375 -104.796875 C 69.976562 -105.015625 71.082031 -105.125 72.40625 -105.125 C 74.382812 -105.125 75.59375 -104.90625 76.03125 -104.46875 C 76.476562 -104.03125 76.039062 -103.476562 74.71875 -102.8125 C 74.050781 -102.59375 73.390625 -102.375 72.734375 -102.15625 C 64.796875 -100.164062 57.191406 -101.15625 49.921875 -105.125 C 48.816406 -105.570312 47.21875 -106.398438 45.125 -107.609375 C 43.03125 -108.816406 41.429688 -109.753906 40.328125 -110.421875 C 39.222656 -109.316406 37.679688 -106.78125 35.703125 -102.8125 C 33.054688 -96.425781 28.539062 -88.160156 22.15625 -78.015625 C 20.832031 -75.816406 19.617188 -74.164062 18.515625 -73.0625 C 17.628906 -71.738281 16.304688 -70.742188 14.546875 -70.078125 Z M 14.546875 -70.078125 "/></g></g></g><g fill="#ffffff" fill-opacity="1"><g transform="translate(385.434639, 330.792862)"><g><path d="M 39.34375 -90.90625 C 34.488281 -89.59375 31.734375 -91.46875 31.078125 -96.53125 C 30.859375 -99.175781 31.078125 -102.148438 31.734375 -105.453125 C 32.171875 -107.878906 32.28125 -109.425781 32.0625 -110.09375 C 31.625 -110.09375 31.179688 -109.976562 30.734375 -109.75 C 30.296875 -109.53125 29.96875 -109.3125 29.75 -109.09375 C 29.53125 -108.875 29.253906 -108.597656 28.921875 -108.265625 C 28.597656 -107.941406 28.320312 -107.664062 28.09375 -107.4375 C 23.03125 -103.03125 18.40625 -99.835938 14.21875 -97.859375 C 12.675781 -96.972656 11.132812 -96.203125 9.59375 -95.546875 C 7.382812 -94.878906 5.671875 -95.097656 4.453125 -96.203125 C 3.242188 -97.304688 2.863281 -98.957031 3.3125 -101.15625 C 3.3125 -101.601562 3.53125 -102.488281 3.96875 -103.8125 C 5.289062 -106.894531 7.273438 -109.425781 9.921875 -111.40625 C 14.546875 -114.71875 19.171875 -114.71875 23.796875 -111.40625 L 24.140625 -111.078125 L 24.46875 -111.078125 C 26.007812 -109.972656 27.332031 -109.972656 28.4375 -111.078125 L 34.71875 -117.359375 C 35.8125 -118.242188 36.6875 -118.351562 37.34375 -117.6875 C 38.007812 -117.03125 38.125 -116.476562 37.6875 -116.03125 C 37.46875 -114.269531 36.914062 -111.628906 36.03125 -108.109375 C 34.925781 -103.921875 34.488281 -100.0625 34.71875 -96.53125 C 34.9375 -94.769531 36.035156 -94 38.015625 -94.21875 C 41.328125 -94.65625 50.144531 -98.289062 64.46875 -105.125 C 65.34375 -105.125 65.894531 -104.90625 66.125 -104.46875 C 66.5625 -103.363281 66.007812 -102.375 64.46875 -101.5 C 53.007812 -95.757812 44.632812 -92.226562 39.34375 -90.90625 Z M 11.234375 -99.84375 C 13.660156 -100.71875 16.195312 -101.925781 18.84375 -103.46875 C 20.382812 -104.570312 21.265625 -105.457031 21.484375 -106.125 C 21.703125 -106.5625 21.425781 -106.945312 20.65625 -107.28125 C 19.882812 -107.613281 18.953125 -107.78125 17.859375 -107.78125 C 16.085938 -107.332031 14.765625 -106.890625 13.890625 -106.453125 C 11.242188 -104.460938 9.476562 -102.367188 8.59375 -100.171875 C 9.695312 -99.285156 10.578125 -99.175781 11.234375 -99.84375 Z M 11.234375 -99.84375 "/></g></g></g><g fill="#ffffff" fill-opacity="1"><g transform="translate(444.941307, 330.792862)"><g><path d="M 8.921875 -85.625 C 6.503906 -83.644531 4.851562 -84.195312 3.96875 -87.28125 C 3.300781 -89.476562 3.191406 -92.5625 3.640625 -96.53125 C 3.859375 -98.519531 4.410156 -100.945312 5.296875 -103.8125 C 5.734375 -105.132812 6.390625 -105.796875 7.265625 -105.796875 C 8.148438 -105.566406 8.59375 -104.679688 8.59375 -103.140625 C 8.15625 -101.378906 7.9375 -99.835938 7.9375 -98.515625 C 7.488281 -94.992188 7.488281 -92.347656 7.9375 -90.578125 C 10.800781 -93.441406 12.785156 -95.535156 13.890625 -96.859375 C 17.847656 -100.828125 21.484375 -103.691406 24.796875 -105.453125 C 29.640625 -108.546875 34.378906 -108.328125 39.015625 -104.796875 C 40.992188 -103.253906 43.523438 -101.160156 46.609375 -98.515625 C 48.378906 -96.316406 51.742188 -95.601562 56.703125 -96.375 C 61.660156 -97.144531 66.066406 -98.132812 69.921875 -99.34375 C 73.773438 -100.550781 77.46875 -101.925781 81 -103.46875 C 81.65625 -103.914062 82.695312 -104.414062 84.125 -104.96875 C 85.5625 -105.519531 86.613281 -105.90625 87.28125 -106.125 C 88.382812 -106.125 89.15625 -105.789062 89.59375 -105.125 C 89.8125 -104.6875 89.59375 -104.132812 88.9375 -103.46875 C 84.96875 -100.601562 80.171875 -98.015625 74.546875 -95.703125 C 68.929688 -93.390625 63.09375 -91.789062 57.03125 -90.90625 C 50.96875 -90.03125 46.171875 -90.914062 42.640625 -93.5625 C 39.117188 -95.757812 36.585938 -97.519531 35.046875 -98.84375 C 32.398438 -100.613281 29.535156 -100.835938 26.453125 -99.515625 C 21.816406 -96.867188 17.628906 -93.671875 13.890625 -89.921875 Z M 8.921875 -85.625 "/></g></g></g><g fill="#ffffff" fill-opacity="1"><g transform="translate(527.920199, 330.792862)"><g><path d="M 10.578125 -79.015625 C 5.066406 -79.453125 1.648438 -82.535156 0.328125 -88.265625 C 0.109375 -89.585938 0 -91.460938 0 -93.890625 C 0 -100.722656 1.429688 -106.671875 4.296875 -111.734375 C 6.054688 -114.378906 7.488281 -116.144531 8.59375 -117.03125 C 10.351562 -118.351562 12.335938 -119.015625 14.546875 -119.015625 C 16.972656 -119.015625 18.625 -118.132812 19.5 -116.375 C 20.820312 -114.382812 20.601562 -112.289062 18.84375 -110.09375 C 14.875 -105.90625 11.128906 -103.367188 7.609375 -102.484375 C 5.179688 -102.046875 3.75 -100.28125 3.3125 -97.1875 C 2.863281 -93.445312 3.191406 -90.363281 4.296875 -87.9375 C 5.617188 -84.632812 7.710938 -82.757812 10.578125 -82.3125 C 18.734375 -81.4375 29.753906 -87.941406 43.640625 -101.828125 L 46.609375 -104.796875 C 47.273438 -104.796875 47.71875 -104.6875 47.9375 -104.46875 C 48.15625 -104.03125 48.265625 -103.695312 48.265625 -103.46875 C 48.265625 -102.8125 48.046875 -102.265625 47.609375 -101.828125 C 42.753906 -96.097656 36.523438 -90.804688 28.921875 -85.953125 C 21.316406 -81.109375 15.203125 -78.796875 10.578125 -79.015625 Z M 5.953125 -106.78125 C 10.578125 -108.988281 13.660156 -111.191406 15.203125 -113.390625 C 15.648438 -113.609375 15.648438 -113.941406 15.203125 -114.390625 C 15.203125 -114.828125 14.875 -115.046875 14.21875 -115.046875 C 12.894531 -115.484375 11.679688 -115.15625 10.578125 -114.0625 C 8.148438 -112.070312 6.609375 -109.644531 5.953125 -106.78125 Z M 5.953125 -106.78125 "/></g></g></g><g fill="#ffffff" fill-opacity="1"><g transform="translate(569.574842, 330.792862)"><g><path d="M 24.796875 -44.953125 C 20.828125 -45.398438 19.394531 -47.609375 20.5 -51.578125 C 20.9375 -53.335938 21.597656 -54.660156 22.484375 -55.546875 C 24.679688 -58.628906 26.550781 -60.832031 28.09375 -62.15625 C 34.707031 -68.988281 42.09375 -75.160156 50.25 -80.671875 L 56.859375 -85.296875 C 50.910156 -87.273438 44.519531 -88.265625 37.6875 -88.265625 L 13.21875 -86.28125 C 10.570312 -86.28125 8.585938 -86.503906 7.265625 -86.953125 C 2.859375 -88.273438 0.988281 -90.804688 1.65625 -94.546875 C 2.3125 -101.597656 5.726562 -107.21875 11.90625 -111.40625 C 13 -112.289062 14.539062 -112.515625 16.53125 -112.078125 C 17.632812 -111.628906 18.457031 -110.800781 19 -109.59375 C 19.550781 -108.382812 19.390625 -107.226562 18.515625 -106.125 C 18.296875 -105.90625 18.070312 -105.628906 17.84375 -105.296875 C 17.625 -104.960938 17.347656 -104.6875 17.015625 -104.46875 C 16.691406 -104.25 16.421875 -104.03125 16.203125 -103.8125 C 15.097656 -102.488281 13.664062 -100.28125 11.90625 -97.1875 C 10.582031 -94.101562 11.460938 -92.453125 14.546875 -92.234375 C 16.523438 -91.796875 19.5 -91.351562 23.46875 -90.90625 C 25.226562 -90.90625 27.707031 -90.960938 30.90625 -91.078125 C 34.101562 -91.191406 36.472656 -91.25 38.015625 -91.25 C 46.171875 -91.25 52.894531 -90.144531 58.1875 -87.9375 C 59.289062 -87.5 60.722656 -87.71875 62.484375 -88.59375 L 88.9375 -104.140625 C 89.375 -104.359375 90.582031 -104.796875 92.5625 -105.453125 C 93.445312 -105.453125 94 -105.125 94.21875 -104.46875 C 94.882812 -103.800781 94.773438 -103.25 93.890625 -102.8125 L 76.703125 -92.5625 L 64.796875 -85.625 C 63.472656 -84.738281 63.140625 -83.632812 63.796875 -82.3125 C 65.347656 -78.125 65.019531 -73.828125 62.8125 -69.421875 C 55.976562 -56.640625 45.507812 -48.484375 31.40625 -44.953125 C 29.425781 -44.515625 27.222656 -44.515625 24.796875 -44.953125 Z M 25.78125 -48.59375 C 29.3125 -48.59375 32.066406 -49.035156 34.046875 -49.921875 C 42.867188 -52.785156 50.253906 -58.070312 56.203125 -65.78125 C 57.960938 -67.550781 59.394531 -69.976562 60.5 -73.0625 L 61.484375 -76.359375 C 61.484375 -77.679688 61.375 -78.675781 61.15625 -79.34375 C 61.15625 -81.769531 60.054688 -82.320312 57.859375 -81 C 46.835938 -74.382812 36.804688 -66.335938 27.765625 -56.859375 C 26.890625 -55.984375 26.335938 -55.210938 26.109375 -54.546875 C 25.671875 -54.109375 25.234375 -53.445312 24.796875 -52.5625 C 24.128906 -51.457031 23.960938 -50.519531 24.296875 -49.75 C 24.628906 -48.976562 25.125 -48.59375 25.78125 -48.59375 Z M 25.78125 -48.59375 "/></g></g></g><g fill="#ffffff" fill-opacity="1"><g transform="translate(657.512586, 330.792862)"><g><path d="M 12.890625 -79.015625 C 10.023438 -76.148438 7.601562 -76.585938 5.625 -80.328125 C 4.519531 -82.972656 3.75 -86.171875 3.3125 -89.921875 C 2.863281 -99.835938 3.523438 -108.429688 5.296875 -115.703125 C 9.035156 -134.222656 15.316406 -154.390625 24.140625 -176.203125 C 28.546875 -186.335938 33.941406 -195.59375 40.328125 -203.96875 C 42.535156 -207.28125 44.960938 -209.816406 47.609375 -211.578125 C 49.367188 -212.898438 51.128906 -213.894531 52.890625 -214.5625 C 55.972656 -215.65625 58.507812 -214.878906 60.5 -212.234375 C 62.257812 -209.816406 63.140625 -206.953125 63.140625 -203.640625 C 63.359375 -199.015625 62.695312 -193.503906 61.15625 -187.109375 C 58.957031 -177.410156 55.210938 -167.601562 49.921875 -157.6875 C 41.546875 -140.9375 32.507812 -126.832031 22.8125 -115.375 C 17.519531 -109.644531 13.992188 -106.007812 12.234375 -104.46875 C 10.691406 -103.363281 9.921875 -102.148438 9.921875 -100.828125 C 8.816406 -93.773438 9.035156 -87.492188 10.578125 -81.984375 C 12.785156 -83.085938 14.988281 -85.179688 17.1875 -88.265625 L 28.765625 -101.15625 C 30.523438 -103.363281 32.945312 -105.570312 36.03125 -107.78125 C 37.570312 -109.320312 39.226562 -110.203125 41 -110.421875 C 44.957031 -111.523438 47.929688 -110.644531 49.921875 -107.78125 C 52.117188 -105.351562 53.992188 -102.816406 55.546875 -100.171875 C 58.847656 -94.222656 63.53125 -90.640625 69.59375 -89.421875 C 75.65625 -88.210938 81.660156 -89.921875 87.609375 -94.546875 L 96.53125 -102.484375 C 97.195312 -103.140625 98.191406 -103.910156 99.515625 -104.796875 C 99.515625 -105.234375 99.84375 -105.125 100.5 -104.46875 C 100.71875 -104.46875 100.828125 -104.25 100.828125 -103.8125 L 100.5 -103.46875 C 94.988281 -96.644531 89.148438 -91.6875 82.984375 -88.59375 C 78.347656 -85.726562 72.941406 -85.007812 66.765625 -86.4375 C 60.597656 -87.875 55.972656 -91.347656 52.890625 -96.859375 C 49.804688 -101.710938 48.046875 -104.46875 47.609375 -105.125 C 45.398438 -108.4375 42.535156 -108.988281 39.015625 -106.78125 C 37.023438 -105.675781 34.929688 -104.023438 32.734375 -101.828125 C 28.984375 -98.296875 24.679688 -93.335938 19.828125 -86.953125 C 19.390625 -86.285156 18.726562 -85.398438 17.84375 -84.296875 C 16.96875 -83.203125 16.144531 -82.210938 15.375 -81.328125 C 14.601562 -80.441406 13.773438 -79.671875 12.890625 -79.015625 Z M 11.234375 -108.4375 L 12.234375 -108.4375 C 12.453125 -108.65625 12.890625 -109.039062 13.546875 -109.59375 C 14.210938 -110.144531 14.765625 -110.695312 15.203125 -111.25 C 15.648438 -111.800781 16.09375 -112.296875 16.53125 -112.734375 C 29.976562 -127.492188 41.660156 -145.457031 51.578125 -166.625 C 54.441406 -173.007812 56.644531 -179.175781 58.1875 -185.125 C 59.945312 -191.082031 60.828125 -196.707031 60.828125 -202 C 60.828125 -203.976562 60.5 -205.957031 59.84375 -207.9375 C 58.289062 -211.46875 55.753906 -212.238281 52.234375 -210.25 C 49.367188 -208.050781 47.164062 -205.628906 45.625 -202.984375 C 44.082031 -200.554688 41.988281 -196.921875 39.34375 -192.078125 C 33.164062 -181.054688 27.4375 -167.28125 22.15625 -150.75 C 17.519531 -137.53125 14.101562 -125.738281 11.90625 -115.375 C 11.457031 -111.625 11.234375 -109.3125 11.234375 -108.4375 Z M 11.234375 -108.4375 "/></g></g></g></g></g></g></g></g></svg>